<?xml version="1.0" encoding="UTF-8"?>
<svg xmlns="http://www.w3.org/2000/svg" viewBox="0 0 221.88 304.67">
  <defs>
    <style>
      .cls-1 {
        fill: #bcbbb8;
      }

      .cls-2 {
        fill: none;
        stroke: #000;
        stroke-linecap: round;
        stroke-miterlimit: 10;
        stroke-width: 3px;
      }

      .cls-3 {
        fill: #fde46d;
      }

      .cls-4 {
        fill: #fff;
      }

      .cls-5 {
        fill: #cecdc8;
      }

      .cls-6 {
        fill: #c997fc;
      }

      .cls-7 {
        fill: #faac18;
      }

      .cls-8 {
        isolation: isolate;
      }

      .cls-9 {
        fill: #ef9a1d;
      }

      .cls-9, .cls-10 {
        mix-blend-mode: multiply;
      }

      .cls-10 {
        fill: #606161;
        opacity: .25;
      }
    </style>
  </defs>
  <g class="cls-8">
    <g id="Layer_2" data-name="Layer 2">
      <g id="_เพนกิ้น" data-name="เพนกิ้น">
        <ellipse class="cls-10" cx="116.86" cy="295.15" rx="55.98" ry="9.51"/>
        <g>
          <path class="cls-7" d="M80.56,259.68h15.88c.53,0,.96.43.96.96v34.53h-16.08c-.95,0-1.72-.77-1.72-1.72v-32.81c0-.53.43-.96.96-.96Z" transform="translate(-2.95 .96) rotate(-.61)"/>
          <path class="cls-7" d="M104.34,270.24h0c.35,0,.64.29.64.64v34c0,.54-.43.97-.97.97h-13.94v-21.33c0-7.88,6.4-14.27,14.27-14.27Z" transform="translate(384.51 187.47) rotate(89.39)"/>
          <path class="cls-7" d="M131.05,258.68h15.88c.53,0,.96.43.96.96v34.53h-16.08c-.95,0-1.72-.77-1.72-1.72v-32.81c0-.53.43-.96.96-.96Z" transform="translate(-2.93 1.49) rotate(-.61)"/>
          <path class="cls-7" d="M154.82,269.24h0c.35,0,.64.29.64.64v34c0,.54-.43.97-.97.97h-13.94v-21.33c0-7.88,6.4-14.27,14.27-14.27Z" transform="translate(433.46 136) rotate(89.39)"/>
          <path class="cls-5" d="M2.79,165.62h45.1c22.26,0,40.33,18.07,40.33,40.33h0c0,1.64-1.33,2.97-2.97,2.97H2.79c-1.67,0-3.03-1.36-3.03-3.03v-37.24c0-1.67,1.36-3.03,3.03-3.03Z" transform="translate(214.86 275.65) rotate(130.57)"/>
          <circle class="cls-5" cx="116.15" cy="191.11" r="78.02"/>
          <circle class="cls-5" cx="116.15" cy="112.95" r="68.91"/>
          <circle class="cls-4" cx="144.34" cy="107.84" r="28.19"/>
          <circle class="cls-4" cx="87.96" cy="107.84" r="28.19"/>
          <circle class="cls-4" cx="116.15" cy="194.46" r="58.03"/>
          <path class="cls-4" d="M172.54,107.71c0,31.14-25.25,56.38-56.39,56.38s-56.38-25.24-56.38-56.38h112.78Z"/>
          <path class="cls-2" d="M155.33,104.59c0,3.44-3.7,6.23-8.26,6.23s-8.26-2.79-8.26-6.23"/>
          <path class="cls-2" d="M95.38,104.59c0,3.44-3.7,6.23-8.26,6.23s-8.26-2.79-8.26-6.23"/>
          <path class="cls-9" d="M110.23,121.66h12.29v1.2c0,3.15-2.56,5.71-5.71,5.71h-.86c-3.15,0-5.71-2.56-5.71-5.71v-1.2h0Z"/>
          <path class="cls-7" d="M127.14,123.63h-21.97c-.66,0-1.22-.5-1.14-1.09.08-.65.23-1.28.44-1.88,1.52-4.46,6.18-7.71,11.69-7.71,6.27,0,11.43,4.2,12.13,9.59.08.58-.48,1.09-1.14,1.09Z"/>
          <ellipse class="cls-3" cx="116.37" cy="115.03" rx="3.61" ry="1.1"/>
          <path class="cls-1" d="M119.14,137.62h45.1c22.26,0,40.33,18.07,40.33,40.33h0c0,1.64-1.33,2.97-2.97,2.97h-45.22c-22.22,0-40.27-18.04-40.27-40.27h0c0-1.67,1.36-3.03,3.03-3.03Z" transform="translate(246.99 367.99) rotate(-157.36)"/>
        </g>
        <g>
          <path class="cls-6" d="M221.18,12.48c-.25-.77-.56-1.49-.92-2.21-1.71-3.49-4.84-6.07-8.2-7.82-2.97-1.47-6.2-2.54-9.58-2.46-6.35.07-12.12,5.35-12.22,11.87.24,5.56,7.9,6.13,8.99.59.2-.79.36-1.53.68-2.3.5-1.25,1.42-2.61,2.47-3.63,1.27-1.25,2.96-2.04,4.79-1.93,2.59.13,5.06,1.74,6.51,3.83.9,1.29,1.34,2.72,1.39,4.25.1,1.9-.38,3.85-1.22,5.51-1.02,2.09-2.54,3.72-4.39,5.2-.46.37-.96.75-1.46,1.06-2.33,1.53-5.07,2.15-7.62,3.33-2.52,1.12-4.82,2.93-6.44,5.16-1.01,1.37-1.84,2.89-2.47,4.44-1.09,2.86,2.59,5.02,4.56,2.66,1.54-1.95,3.21-3.85,5.48-4.91,1.08-.52,2.32-.86,3.51-1.19,2.38-.62,4.94-1.44,7.1-2.75,6.51-3.93,11.65-10.83,9.03-18.72Z"/>
          <path class="cls-6" d="M192.84,49.21c-1.29,2.28-3.32,1.97-5.38.8s-3.36-2.75-2.07-5.03,3.32-1.97,5.38-.8,3.33,2.81,2.07,5.03Z"/>
          <ellipse class="cls-4" cx="196.66" cy="6.12" rx="2.68" ry="1.48" transform="translate(88.14 170.23) rotate(-58.31)"/>
          <ellipse class="cls-4" cx="194.71" cy="10.67" rx="1.01" ry=".72" transform="translate(149.03 200.25) rotate(-79.59)"/>
        </g>
      </g>
    </g>
  </g>
</svg>