<svg xmlns="http://www.w3.org/2000/svg" viewBox="0 0 128 128">
  <defs><linearGradient id="bg" x1="16" y1="12" x2="112" y2="116" gradientUnits="userSpaceOnUse"><stop stop-color="#E1F5FE"/><stop offset="1" stop-color="#F3E5F5"/></linearGradient></defs>
  <circle cx="64" cy="64" r="56" fill="url(#bg)"/>
  <ellipse cx="64" cy="108" rx="36" ry="7" fill="#6D4C41" opacity="0.13"/>
  <circle cx="42" cy="46" r="12" fill="#8D6E63"/><circle cx="86" cy="46" r="12" fill="#8D6E63"/>
  <circle cx="64" cy="65" r="31" fill="#A9744F" stroke="#6D4C41" stroke-width="4"/>
  <ellipse cx="64" cy="75" rx="18" ry="13" fill="#D7A77A"/>
  <circle cx="53" cy="61" r="4" fill="#263238"/><circle cx="75" cy="61" r="4" fill="#263238"/>
  <path d="M62 70 C64 67 66 67 68 70 C67 74 63 74 62 70 Z" fill="#263238"/>
  <path d="M47 84 C55 91 73 91 81 84" stroke="#8CCBFF" stroke-width="8" stroke-linecap="round"/>
  <path d="M28 31 L36 31 M32 27 V35 M94 28 L102 28 M98 24 V32" stroke="#64B5F6" stroke-width="4" stroke-linecap="round"/>
</svg>
